<svg class="animated" id="freepik_stories-overwhelmed" xmlns="http://www.w3.org/2000/svg" viewBox="0 0 500 500" version="1.1" xmlns:xlink="http://www.w3.org/1999/xlink" xmlns:svgjs="http://svgjs.com/svgjs"><style>svg#freepik_stories-overwhelmed:not(.animated) .animable {opacity: 0;}svg#freepik_stories-overwhelmed.animated #freepik--background-complete--inject-182 {animation: 1s 1 forwards cubic-bezier(.36,-0.01,.5,1.38) zoomOut;animation-delay: 0s;}svg#freepik_stories-overwhelmed.animated #freepik--Shadow--inject-182 {animation: 1s 1 forwards cubic-bezier(.36,-0.01,.5,1.38) zoomIn;animation-delay: 0s;}svg#freepik_stories-overwhelmed.animated #freepik--elements-2--inject-182 {animation: 1s 1 forwards cubic-bezier(.36,-0.01,.5,1.38) slideLeft;animation-delay: 0s;}svg#freepik_stories-overwhelmed.animated #freepik--elements-1--inject-182 {animation: 1s 1 forwards cubic-bezier(.36,-0.01,.5,1.38) slideDown;animation-delay: 0s;}svg#freepik_stories-overwhelmed.animated #freepik--speech-bubble--inject-182 {animation: 1s 1 forwards cubic-bezier(.36,-0.01,.5,1.38) slideRight;animation-delay: 0s;}svg#freepik_stories-overwhelmed.animated #freepik--Character--inject-182 {animation: 1s 1 forwards cubic-bezier(.36,-0.01,.5,1.38) slideLeft;animation-delay: 0s;}            @keyframes zoomOut {                0% {                    opacity: 0;                    transform: scale(1.5);                }                100% {                    opacity: 1;                    transform: scale(1);                }            }                    @keyframes zoomIn {                0% {                    opacity: 0;                    transform: scale(0.5);                }                100% {                    opacity: 1;                    transform: scale(1);                }            }                    @keyframes slideLeft {                0% {                    opacity: 0;                    transform: translateX(-30px);                }                100% {                    opacity: 1;                    transform: translateX(0);                }            }                    @keyframes slideDown {                0% {                    opacity: 0;                    transform: translateY(-30px);                }                100% {                    opacity: 1;                    transform: translateY(0);                }            }                    @keyframes slideRight {                0% {                    opacity: 0;                    transform: translateX(30px);                }                100% {                    opacity: 1;                    transform: translateX(0);                }            }        </style><g id="freepik--background-complete--inject-182" class="animable" style="transform-origin: 250px 228.23px;"><rect y="382.4" width="500" height="0.25" style="fill: rgb(235, 235, 235); transform-origin: 250px 382.525px;" id="elces3vdrxobh" class="animable"></rect><rect x="416.78" y="398.49" width="33.12" height="0.25" style="fill: rgb(235, 235, 235); transform-origin: 433.34px 398.615px;" id="elejb2sgcq0vr" class="animable"></rect><rect x="322.53" y="401.21" width="8.69" height="0.25" style="fill: rgb(235, 235, 235); transform-origin: 326.875px 401.335px;" id="eluz3kypqbf9r" class="animable"></rect><rect x="396.59" y="389.21" width="19.19" height="0.25" style="fill: rgb(235, 235, 235); transform-origin: 406.185px 389.335px;" id="elidk95x94yi" class="animable"></rect><rect x="52.46" y="390.89" width="43.19" height="0.25" style="fill: rgb(235, 235, 235); transform-origin: 74.055px 391.015px;" id="elw4510dsfpt" class="animable"></rect><rect x="104.56" y="390.89" width="6.33" height="0.25" style="fill: rgb(235, 235, 235); transform-origin: 107.725px 391.015px;" id="elx878drgdzqo" class="animable"></rect><rect x="131.47" y="395.11" width="93.68" height="0.25" style="fill: rgb(235, 235, 235); transform-origin: 178.31px 395.235px;" id="elht2oduxwbis" class="animable"></rect><path d="M237,337.8H43.91a5.71,5.71,0,0,1-5.7-5.71V60.66A5.71,5.71,0,0,1,43.91,55H237a5.71,5.71,0,0,1,5.71,5.71V332.09A5.71,5.71,0,0,1,237,337.8ZM43.91,55.2a5.46,5.46,0,0,0-5.45,5.46V332.09a5.46,5.46,0,0,0,5.45,5.46H237a5.47,5.47,0,0,0,5.46-5.46V60.66A5.47,5.47,0,0,0,237,55.2Z" style="fill: rgb(235, 235, 235); transform-origin: 140.46px 196.4px;" id="elu8obaktn8wf" class="animable"></path><path d="M453.31,337.8H260.21a5.72,5.72,0,0,1-5.71-5.71V60.66A5.72,5.72,0,0,1,260.21,55h193.1A5.71,5.71,0,0,1,459,60.66V332.09A5.71,5.71,0,0,1,453.31,337.8ZM260.21,55.2a5.47,5.47,0,0,0-5.46,5.46V332.09a5.47,5.47,0,0,0,5.46,5.46h193.1a5.47,5.47,0,0,0,5.46-5.46V60.66a5.47,5.47,0,0,0-5.46-5.46Z" style="fill: rgb(235, 235, 235); transform-origin: 356.75px 196.4px;" id="el8olvbqa8qiq" class="animable"></path><g id="el2fc74nk220u"><rect x="92.44" y="206.05" width="27.25" height="27.25" style="fill: rgb(224, 224, 224); transform-origin: 106.065px 219.675px; transform: rotate(-20.38deg);" class="animable"></rect></g><g id="el09k13sgcl546"><rect x="265.07" y="109.46" width="22.13" height="51.73" style="fill: rgb(224, 224, 224); transform-origin: 276.135px 135.325px; transform: rotate(-9.22deg);" class="animable"></rect></g><g id="el7vkk1qjel1p"><rect x="79.95" y="303.07" width="8.45" height="19.76" style="fill: rgb(240, 240, 240); transform-origin: 84.175px 312.95px; transform: rotate(-35.29deg);" class="animable"></rect></g><polygon points="398.71 302.49 398.71 341.17 365.21 321.83 398.71 302.49" style="fill: rgb(224, 224, 224); transform-origin: 381.96px 321.83px;" id="elgri07afm6mg" class="animable"></polygon><polygon points="192.08 130.98 174.58 150.44 166.47 125.55 192.08 130.98" style="fill: rgb(240, 240, 240); transform-origin: 179.275px 137.995px;" id="elktt34iy8hk" class="animable"></polygon><polygon points="393.51 186.87 361.02 201.35 356.17 176.78 378.47 166.84 393.51 186.87" style="fill: rgb(224, 224, 224); transform-origin: 374.84px 184.095px;" id="elu6x947twvps" class="animable"></polygon><g id="elt4nx2mu94ol"><circle cx="139.9" cy="343.44" r="19.14" style="fill: rgb(224, 224, 224); transform-origin: 139.9px 343.44px; transform: rotate(-76.72deg);" class="animable"></circle></g><g id="eltz1d8k1h5c"><circle cx="305.26" cy="339.16" r="10.49" style="fill: rgb(240, 240, 240); transform-origin: 305.26px 339.16px; transform: rotate(-76.72deg);" class="animable"></circle></g><g id="el33azmvrelke"><circle cx="411.81" cy="246.45" r="10.49" style="fill: rgb(240, 240, 240); transform-origin: 411.81px 246.45px; transform: rotate(-76.72deg);" class="animable"></circle></g><path d="M104.07,210.67a.5.5,0,0,1-.5-.5v-6a.5.5,0,0,1,1,0v6A.5.5,0,0,1,104.07,210.67Z" style="fill: rgb(224, 224, 224); transform-origin: 104.07px 207.17px;" id="eleuzsrr8l4qp" class="animable"></path><path d="M104.07,199.51a.5.5,0,0,1-.5-.5V188.69a.5.5,0,0,1,1,0V199A.5.5,0,0,1,104.07,199.51Zm0-12.38a.5.5,0,0,1-.5-.5V166a.5.5,0,0,1,1,0v20.63A.5.5,0,0,1,104.07,187.13Zm0-33a.5.5,0,0,1-.5-.5v-5.16a.5.5,0,0,1,1,0v5.16A.5.5,0,0,1,104.07,154.12Zm0-15.47a.5.5,0,0,1-.5-.5V127.83a.5.5,0,1,1,1,0v10.32A.5.5,0,0,1,104.07,138.65Z" style="fill: rgb(224, 224, 224); transform-origin: 104.07px 163.42px;" id="el8otjjvcxdhw" class="animable"></path><path d="M104.07,116a.5.5,0,0,1-.5-.5v-6a.5.5,0,1,1,1,0v6A.5.5,0,0,1,104.07,116Z" style="fill: rgb(224, 224, 224); transform-origin: 104.07px 112.5px;" id="elckg4257pnpg" class="animable"></path><path d="M111.68,220.15a.5.5,0,0,1-.5-.5v-6a.5.5,0,0,1,1,0v6A.5.5,0,0,1,111.68,220.15Z" style="fill: rgb(224, 224, 224); transform-origin: 111.68px 216.65px;" id="elj7z03rj43la" class="animable"></path><path d="M111.68,209.57a.5.5,0,0,1-.5-.5v-9.15a.5.5,0,0,1,1,0v9.15A.5.5,0,0,1,111.68,209.57Zm0-11a.5.5,0,0,1-.5-.5v-18.3a.5.5,0,0,1,1,0v18.3A.5.5,0,0,1,111.68,198.59Zm0-29.29a.5.5,0,0,1-.5-.5v-4.57a.5.5,0,1,1,1,0v4.57A.5.5,0,0,1,111.68,169.3Zm0-13.72a.5.5,0,0,1-.5-.5v-9.16a.5.5,0,0,1,1,0v9.16A.5.5,0,0,1,111.68,155.58Z" style="fill: rgb(224, 224, 224); transform-origin: 111.68px 177.485px;" id="el0hq6qvvfkaoh" class="animable"></path><path d="M111.68,135.44a.5.5,0,0,1-.5-.5v-6a.5.5,0,0,1,1,0v6A.5.5,0,0,1,111.68,135.44Z" style="fill: rgb(224, 224, 224); transform-origin: 111.68px 131.94px;" id="elva5285yk269" class="animable"></path><path d="M139.9,331.11a.5.5,0,0,1-.5-.5v-6a.51.51,0,0,1,.5-.5.5.5,0,0,1,.5.5v6A.5.5,0,0,1,139.9,331.11Z" style="fill: rgb(224, 224, 224); transform-origin: 139.9px 327.61px;" id="el69hu75lvor8" class="animable"></path><path d="M139.9,322.43a.5.5,0,0,1-.5-.5v-5.36a.5.5,0,0,1,.5-.5.5.5,0,0,1,.5.5v5.36A.5.5,0,0,1,139.9,322.43Zm0-6.43a.51.51,0,0,1-.5-.5V304.77a.5.5,0,0,1,.5-.5.5.5,0,0,1,.5.5V315.5A.5.5,0,0,1,139.9,316Zm0-17.17a.51.51,0,0,1-.5-.5v-2.68a.5.5,0,0,1,.5-.5.5.5,0,0,1,.5.5v2.68A.5.5,0,0,1,139.9,298.83Zm0-8.05a.5.5,0,0,1-.5-.5v-5.36a.5.5,0,0,1,.5-.5.5.5,0,0,1,.5.5v5.36A.5.5,0,0,1,139.9,290.78Zm0-6.44a.5.5,0,0,1,0-1h0a.5.5,0,0,1,.5.5A.5.5,0,0,1,139.91,284.34Z" style="fill: rgb(224, 224, 224); transform-origin: 139.9px 302.885px;" id="elmzgp6rr195q" class="animable"></path><path d="M139.9,279a.51.51,0,0,1-.5-.5V272a.5.5,0,0,1,.5-.5.5.5,0,0,1,.5.5v6.44A.5.5,0,0,1,139.9,279Zm0-9.12a.51.51,0,0,1-.5-.5V264a.51.51,0,0,1,.5-.5.5.5,0,0,1,.5.5v5.37A.5.5,0,0,1,139.9,269.86Zm0-6.44a.5.5,0,0,1-.5-.5V252.19a.51.51,0,0,1,.5-.5.5.5,0,0,1,.5.5v10.73A.5.5,0,0,1,139.9,263.42Zm0-17.17a.5.5,0,0,1-.5-.5v-6.43a.5.5,0,0,1,.5-.5.5.5,0,0,1,.5.5v6.43A.5.5,0,0,1,139.9,246.25Zm0-9.12a.5.5,0,0,1-.5-.5v-5.36a.5.5,0,0,1,.5-.5.5.5,0,0,1,.5.5v5.36A.5.5,0,0,1,139.9,237.13Z" style="fill: rgb(224, 224, 224); transform-origin: 139.902px 254.895px;" id="elc29vd7n4829" class="animable"></path><path d="M139.9,226.41a.51.51,0,0,1-.5-.5v-6a.5.5,0,0,1,.5-.5.5.5,0,0,1,.5.5v6A.5.5,0,0,1,139.9,226.41Z" style="fill: rgb(224, 224, 224); transform-origin: 139.9px 222.91px;" id="elu76j09gd64q" class="animable"></path><path d="M134,340.67a.5.5,0,0,1-.5-.5v-6a.51.51,0,0,1,.5-.5.5.5,0,0,1,.5.5v6A.5.5,0,0,1,134,340.67Z" style="fill: rgb(224, 224, 224); transform-origin: 134px 337.17px;" id="eloueisc60dzm" class="animable"></path><path d="M134,330.1a.51.51,0,0,1-.5-.5v-9.16a.51.51,0,0,1,.5-.5.5.5,0,0,1,.5.5v9.16A.5.5,0,0,1,134,330.1Zm0-11a.5.5,0,0,1-.5-.5v-18.3a.5.5,0,0,1,.5-.5.5.5,0,0,1,.5.5v18.3A.5.5,0,0,1,134,319.11Zm0-29.28a.51.51,0,0,1-.5-.5v-4.58a.51.51,0,0,1,.5-.5.5.5,0,0,1,.5.5v4.58A.5.5,0,0,1,134,289.83Zm0-13.73a.5.5,0,0,1-.5-.5v-9.15a.5.5,0,0,1,.5-.5.5.5,0,0,1,.5.5v9.15A.5.5,0,0,1,134,276.1Zm0-11a.51.51,0,0,1-.5-.5.49.49,0,0,1,.49-.5h0a.5.5,0,0,1,.5.5A.5.5,0,0,1,134,265.12Z" style="fill: rgb(224, 224, 224); transform-origin: 134px 297.095px;" id="el1jv0bfgy94c" class="animable"></path><path d="M134,256a.5.5,0,0,1-.5-.5v-6a.51.51,0,0,1,.5-.5.5.5,0,0,1,.5.5v6A.5.5,0,0,1,134,256Z" style="fill: rgb(224, 224, 224); transform-origin: 134px 252.5px;" id="elpaqrl078rbf" class="animable"></path><path d="M396.47,314.43a.5.5,0,0,1-.5-.5v-6a.51.51,0,0,1,.5-.5.5.5,0,0,1,.5.5v6A.5.5,0,0,1,396.47,314.43Z" style="fill: rgb(224, 224, 224); transform-origin: 396.47px 310.93px;" id="elwkhpwynb5tf" class="animable"></path><path d="M396.47,305.75a.5.5,0,0,1-.5-.5v-5.36a.5.5,0,0,1,.5-.5.5.5,0,0,1,.5.5v5.36A.5.5,0,0,1,396.47,305.75Zm0-6.44a.5.5,0,0,1-.5-.5V288.08a.51.51,0,0,1,.5-.5.5.5,0,0,1,.5.5v10.73A.5.5,0,0,1,396.47,299.31Zm0-17.16a.51.51,0,0,1-.5-.5V279a.51.51,0,0,1,.5-.5.5.5,0,0,1,.5.5v2.69A.5.5,0,0,1,396.47,282.15Zm0-8a.5.5,0,0,1-.5-.5v-5.36a.5.5,0,0,1,.5-.5.5.5,0,0,1,.5.5v5.36A.5.5,0,0,1,396.47,274.1Zm0-6.44a.5.5,0,0,1,0-1h0a.5.5,0,0,1,.5.5A.5.5,0,0,1,396.48,267.66Z" style="fill: rgb(224, 224, 224); transform-origin: 396.47px 286.23px;" id="elqt542enpv7" class="animable"></path><path d="M396.47,262.3a.51.51,0,0,1-.5-.5v-6.44a.5.5,0,0,1,.5-.5.5.5,0,0,1,.5.5v6.44A.5.5,0,0,1,396.47,262.3Zm0-9.12a.51.51,0,0,1-.5-.5v-5.37a.51.51,0,0,1,.5-.5.5.5,0,0,1,.5.5v5.37A.5.5,0,0,1,396.47,253.18Zm0-6.44a.5.5,0,0,1-.5-.5V235.51a.51.51,0,0,1,.5-.5.5.5,0,0,1,.5.5v10.73A.5.5,0,0,1,396.47,246.74Zm0-17.17a.5.5,0,0,1-.5-.5v-6.43a.5.5,0,0,1,.5-.5.5.5,0,0,1,.5.5v6.43A.5.5,0,0,1,396.47,229.57Zm0-9.12a.5.5,0,0,1-.5-.5v-5.36a.5.5,0,0,1,.5-.5.5.5,0,0,1,.5.5V220A.5.5,0,0,1,396.47,220.45Z" style="fill: rgb(224, 224, 224); transform-origin: 396.47px 238.195px;" id="el4pnx1n6h6wx" class="animable"></path><path d="M396.47,209.72a.5.5,0,0,1-.5-.5v-6a.51.51,0,0,1,.5-.5.5.5,0,0,1,.5.5v6A.5.5,0,0,1,396.47,209.72Z" style="fill: rgb(224, 224, 224); transform-origin: 396.47px 206.22px;" id="elro0l6jwx1de" class="animable"></path><path d="M390.54,324a.5.5,0,0,1-.5-.5v-6a.5.5,0,0,1,.5-.5.5.5,0,0,1,.5.5v6A.5.5,0,0,1,390.54,324Z" style="fill: rgb(224, 224, 224); transform-origin: 390.54px 320.5px;" id="elmy9kz5we9f" class="animable"></path><path d="M390.54,313.42a.51.51,0,0,1-.5-.5v-9.16a.51.51,0,0,1,.5-.5.5.5,0,0,1,.5.5v9.16A.5.5,0,0,1,390.54,313.42Zm0-11a.5.5,0,0,1-.5-.5v-18.3a.5.5,0,0,1,.5-.5.5.5,0,0,1,.5.5v18.3A.5.5,0,0,1,390.54,302.43Zm0-29.28a.51.51,0,0,1-.5-.5v-4.58a.5.5,0,0,1,.5-.5.5.5,0,0,1,.5.5v4.58A.5.5,0,0,1,390.54,273.15Zm0-13.73a.51.51,0,0,1-.5-.5v-9.15a.5.5,0,0,1,.5-.5.5.5,0,0,1,.5.5v9.15A.5.5,0,0,1,390.54,259.42Zm0-11a.51.51,0,0,1-.5-.5.49.49,0,0,1,.49-.5h0a.5.5,0,0,1,.5.5A.5.5,0,0,1,390.55,248.44Z" style="fill: rgb(224, 224, 224); transform-origin: 390.54px 280.415px;" id="eltwgeov0m17" class="animable"></path><path d="M390.54,239.28a.5.5,0,0,1-.5-.5v-6a.51.51,0,0,1,.5-.5.5.5,0,0,1,.5.5v6A.5.5,0,0,1,390.54,239.28Z" style="fill: rgb(224, 224, 224); transform-origin: 390.54px 235.78px;" id="elrkwsvlem7z" class="animable"></path><path d="M362.23,188.12a.5.5,0,0,1-.5-.5v-6a.5.5,0,0,1,.5-.5.5.5,0,0,1,.5.5v6A.5.5,0,0,1,362.23,188.12Z" style="fill: rgb(224, 224, 224); transform-origin: 362.23px 184.62px;" id="elybnmzwfw6x" class="animable"></path><path d="M362.23,177.54a.5.5,0,0,1-.5-.5v-9.15a.51.51,0,0,1,.5-.5.5.5,0,0,1,.5.5V177A.5.5,0,0,1,362.23,177.54Zm0-11a.5.5,0,0,1-.5-.5v-18.3a.5.5,0,0,1,.5-.5.5.5,0,0,1,.5.5v18.3A.5.5,0,0,1,362.23,166.56Zm0-29.28a.51.51,0,0,1-.5-.5V132.2a.5.5,0,0,1,.5-.5.5.5,0,0,1,.5.5v4.58A.5.5,0,0,1,362.23,137.28Zm0-13.73a.51.51,0,0,1-.5-.5V113.9a.5.5,0,0,1,.5-.5.5.5,0,0,1,.5.5v9.15A.5.5,0,0,1,362.23,123.55Z" style="fill: rgb(224, 224, 224); transform-origin: 362.231px 145.47px;" id="el27fha3ch1n6" class="animable"></path><path d="M362.23,103.41a.5.5,0,0,1-.5-.5v-6a.51.51,0,0,1,.5-.5.5.5,0,0,1,.5.5v6A.5.5,0,0,1,362.23,103.41Z" style="fill: rgb(224, 224, 224); transform-origin: 362.23px 99.91px;" id="el1h3rfrt30qzj" class="animable"></path><path d="M371.28,176.53a.51.51,0,0,1-.5-.5v-6a.5.5,0,0,1,.5-.5.5.5,0,0,1,.5.5v6A.5.5,0,0,1,371.28,176.53Z" style="fill: rgb(224, 224, 224); transform-origin: 371.28px 173.03px;" id="elabv3hyx6ktn" class="animable"></path><path d="M371.28,168.86a.51.51,0,0,1-.5-.5V165a.47.47,0,0,1,.13-.33.51.51,0,0,1-.13-.34v-6.67a.5.5,0,0,1,.5-.5.5.5,0,0,1,.5.5v6.67a.5.5,0,0,1-.12.34.46.46,0,0,1,.12.33v3.34A.5.5,0,0,1,371.28,168.86Zm0-14.69a.5.5,0,0,1-.5-.5V152a.51.51,0,0,1,.5-.5.5.5,0,0,1,.5.5v1.67A.5.5,0,0,1,371.28,154.17Zm0-5a.51.51,0,0,1-.5-.5v-3.34a.48.48,0,0,1,.14-.34.49.49,0,0,1-.13-.33.49.49,0,0,1,.49-.5h0a.5.5,0,0,1,.5.5.51.51,0,0,1-.13.34.48.48,0,0,1,.12.33v3.34A.5.5,0,0,1,371.28,149.17Z" style="fill: rgb(224, 224, 224); transform-origin: 371.28px 156.51px;" id="elk03bezq6yt" class="animable"></path><path d="M371.28,141.82a.5.5,0,0,1-.5-.5v-6a.51.51,0,0,1,.5-.5.5.5,0,0,1,.5.5v6A.5.5,0,0,1,371.28,141.82Z" style="fill: rgb(224, 224, 224); transform-origin: 371.28px 138.32px;" id="elglwtbk5lbz8" class="animable"></path><path d="M272.75,136.4a.5.5,0,0,1-.5-.5v-6a.5.5,0,1,1,1,0v6A.5.5,0,0,1,272.75,136.4Z" style="fill: rgb(224, 224, 224); transform-origin: 272.75px 132.9px;" id="el7sroy1yobaj" class="animable"></path><path d="M272.75,128.73a.5.5,0,0,1-.5-.5v-3.34a.48.48,0,0,0,0-.66v-6.68a.5.5,0,0,1,1,0v6.68a.48.48,0,0,0,0,.66v3.34A.5.5,0,0,1,272.75,128.73Zm0-14.68a.5.5,0,0,1-.5-.5v-1.67a.5.5,0,0,1,1,0v1.67A.5.5,0,0,1,272.75,114.05Zm0-5a.5.5,0,0,1-.5-.5V105.2a.5.5,0,1,1,1,0v3.34A.5.5,0,0,1,272.75,109Z" style="fill: rgb(224, 224, 224); transform-origin: 272.75px 116.715px;" id="el6k2fvroedgv" class="animable"></path><path d="M272.75,101.7a.5.5,0,0,1-.5-.5v-6a.5.5,0,1,1,1,0v6A.5.5,0,0,1,272.75,101.7Z" style="fill: rgb(224, 224, 224); transform-origin: 272.75px 98.2px;" id="elkrq8elvk4n" class="animable"></path><path d="M281.67,126.75a.5.5,0,0,1-.5-.5v-6a.5.5,0,0,1,.5-.5.5.5,0,0,1,.5.5v6A.5.5,0,0,1,281.67,126.75Z" style="fill: rgb(224, 224, 224); transform-origin: 281.67px 123.25px;" id="elofm4wvw38ws" class="animable"></path><path d="M281.67,119.08a.5.5,0,0,1-.5-.5v-3.34a.48.48,0,0,1,.12-.33.5.5,0,0,1-.12-.34V107.9a.5.5,0,0,1,.5-.5.5.5,0,0,1,.5.5v6.67a.51.51,0,0,1-.13.34.49.49,0,0,1,.13.33v3.34A.5.5,0,0,1,281.67,119.08Zm0-14.69a.5.5,0,0,1-.5-.5v-1.66a.5.5,0,0,1,.5-.5.5.5,0,0,1,.5.5v1.66A.5.5,0,0,1,281.67,104.39Zm0-5a.5.5,0,0,1-.5-.5V95.55a.51.51,0,0,1,.13-.34.49.49,0,0,1-.13-.33.5.5,0,0,1,.5-.5h0a.51.51,0,0,1,.5.5.48.48,0,0,1-.14.34.49.49,0,0,1,.13.33v3.34A.51.51,0,0,1,281.67,99.39Z" style="fill: rgb(224, 224, 224); transform-origin: 281.67px 106.73px;" id="eljy1gnp4qeq" class="animable"></path><path d="M281.67,92a.5.5,0,0,1-.5-.5v-6a.5.5,0,0,1,.5-.5.51.51,0,0,1,.5.5v6A.5.5,0,0,1,281.67,92Z" style="fill: rgb(224, 224, 224); transform-origin: 281.67px 88.5px;" id="eljqvu04ef94" class="animable"></path></g><g id="freepik--Shadow--inject-182" class="animable" style="transform-origin: 250px 416.24px;"><ellipse id="freepik--path--inject-182" cx="250" cy="416.24" rx="193.89" ry="11.32" style="fill: rgb(245, 245, 245); transform-origin: 250px 416.24px;" class="animable"></ellipse></g><g id="freepik--elements-2--inject-182" class="animable" style="transform-origin: 246.65px 349.9px;"><circle cx="398.18" cy="392.61" r="12.05" style="fill: rgb(26, 86, 232); transform-origin: 398.18px 392.61px;" id="elo6oaklusd9s" class="animable"></circle><g id="eluug1beg20so"><circle cx="398.18" cy="392.61" r="12.05" style="fill: rgb(255, 255, 255); opacity: 0.6; transform-origin: 398.18px 392.61px;" class="animable"></circle></g><g id="elc9siwdravd"><path d="M410.23,392.61a12,12,0,1,1-24.1,0c0-.17,0-.33,0-.5a12,12,0,0,0,23.3-3.79A11.76,11.76,0,0,1,410.23,392.61Z" style="opacity: 0.2; transform-origin: 398.18px 396.49px;" class="animable"></path></g><g id="eljmtgypm6n0b"><rect x="349.06" y="395.72" width="19.86" height="19.86" style="fill: rgb(26, 86, 232); transform-origin: 358.99px 405.65px; transform: rotate(-173.31deg);" class="animable"></rect></g><g id="elfsj3s8jtqkb"><polygon points="350.29 394.63 351.31 411.58 367.7 416.68 347.97 414.36 350.29 394.63" style="opacity: 0.2; transform-origin: 357.835px 405.655px;" class="animable"></polygon></g><path d="M359,394h-.07a.26.26,0,0,1-.18-.24V348.89a.26.26,0,0,1,.25-.25.25.25,0,0,1,.25.25V393c1.78-2.16,8.9-9.22,24.36-7.44a.25.25,0,0,1,.22.28.24.24,0,0,1-.27.22c-17.79-2-24.28,7.71-24.35,7.81A.24.24,0,0,1,359,394Z" style="fill: rgb(38, 50, 56); transform-origin: 371.291px 371.32px;" id="elsgzltq8rafr" class="animable"></path><path d="M359,345.29a.25.25,0,0,1-.25-.25v-4.76A.25.25,0,0,1,359,340a.25.25,0,0,1,.25.25V345A.25.25,0,0,1,359,345.29Z" style="fill: rgb(38, 50, 56); transform-origin: 359.001px 342.645px;" id="el7rygqsinf3h" class="animable"></path><path d="M359,331.5a.25.25,0,0,1-.25-.25V328a.25.25,0,0,1,.25-.25.25.25,0,0,1,.25.25v3.23A.25.25,0,0,1,359,331.5Z" style="fill: rgb(38, 50, 56); transform-origin: 359px 329.625px;" id="el2uirc74uuwi" class="animable"></path><path d="M356.45,394a.24.24,0,0,1-.18-.07l-3.74-3.62a.25.25,0,1,1,.35-.36l3.74,3.62a.26.26,0,0,1,0,.36A.26.26,0,0,1,356.45,394Z" style="fill: rgb(38, 50, 56); transform-origin: 354.573px 391.939px;" id="el05hpcl5btdm9" class="animable"></path><path d="M361.72,394a.24.24,0,0,1-.23-.16.24.24,0,0,1,.15-.32l5.11-1.81a.24.24,0,0,1,.31.15.25.25,0,0,1-.15.32l-5.1,1.81Z" style="fill: rgb(38, 50, 56); transform-origin: 364.273px 392.848px;" id="elcucic7rq409" class="animable"></path><path d="M366,395.34h-1.7a.25.25,0,0,1-.25-.25.25.25,0,0,1,.25-.25H366a.25.25,0,0,1,.25.25A.25.25,0,0,1,366,395.34Z" style="fill: rgb(38, 50, 56); transform-origin: 365.15px 395.09px;" id="ellclims08g6" class="animable"></path><path d="M360.7,389.46l-.08,0a.23.23,0,0,1-.15-.31l1-3a.23.23,0,0,1,.31-.15.25.25,0,0,1,.16.32l-1,3A.26.26,0,0,1,360.7,389.46Z" style="fill: rgb(38, 50, 56); transform-origin: 361.203px 387.721px;" id="eln2ou3knsjgc" class="animable"></path><path d="M356.45,390.4a.25.25,0,0,1-.23-.15l-.85-1.83a.24.24,0,0,1,.12-.33.25.25,0,0,1,.33.12l.85,1.83a.25.25,0,0,1-.12.34Z" style="fill: rgb(38, 50, 56); transform-origin: 356.02px 389.234px;" id="elog8ueikcw8m" class="animable"></path><polygon points="111.69 378.88 119.92 416.68 83.07 404.9 111.69 378.88" style="fill: rgb(38, 50, 56); transform-origin: 101.495px 397.78px;" id="el6x9czp005ri" class="animable"></polygon><g id="elg9cz83m2id8"><polygon points="111.69 378.88 119.92 416.68 83.07 404.9 111.69 378.88" style="fill: rgb(255, 255, 255); opacity: 0.2; transform-origin: 101.495px 397.78px;" class="animable"></polygon></g><g id="elc9v1aavytln"><polygon points="111.69 378.88 113.46 410.51 83.07 404.9 119.92 416.68 111.69 378.88" style="opacity: 0.2; transform-origin: 101.495px 397.78px;" class="animable"></polygon></g><rect x="205.3" y="400.81" width="42.96" height="15.87" style="fill: rgb(38, 50, 56); transform-origin: 226.78px 408.745px;" id="elpv4w0z7vgb" class="animable"></rect><g id="elh5oki28a5sl"><rect x="205.3" y="400.81" width="42.96" height="15.87" style="fill: rgb(255, 255, 255); opacity: 0.6; transform-origin: 226.78px 408.745px;" class="animable"></rect></g><g id="elyy0aphqsth7"><polygon points="205.3 400.81 208.5 414.43 248.25 416.68 205.3 416.68 205.3 400.81" style="opacity: 0.2; transform-origin: 226.775px 408.745px;" class="animable"></polygon></g><path d="M107.72,374.4a.25.25,0,0,1-.25-.25V323.41a.25.25,0,0,1,.5,0v50.74A.25.25,0,0,1,107.72,374.4Z" style="fill: rgb(38, 50, 56); transform-origin: 107.72px 348.78px;" id="el8wjv3w88kz6" class="animable"></path><path d="M107.72,317.46a.25.25,0,0,1-.25-.25V309.3a.25.25,0,0,1,.5,0v7.91A.25.25,0,0,1,107.72,317.46Z" style="fill: rgb(38, 50, 56); transform-origin: 107.72px 313.255px;" id="elsrraw4misnm" class="animable"></path><path d="M107.72,298.64a.25.25,0,0,1-.25-.25v-3.57a.25.25,0,0,1,.5,0v3.57A.25.25,0,0,1,107.72,298.64Z" style="fill: rgb(38, 50, 56); transform-origin: 107.72px 296.605px;" id="el0tqsgjjqcrd" class="animable"></path><path d="M107.72,285.21a.25.25,0,0,1-.25-.25v-1.59a.25.25,0,0,1,.5,0V285A.25.25,0,0,1,107.72,285.21Z" style="fill: rgb(38, 50, 56); transform-origin: 107.72px 284.165px;" id="el2sj1khia3je" class="animable"></path></g><g id="freepik--elements-1--inject-182" class="animable" style="transform-origin: 251.085px 205.725px;"><g id="eljxvwnk66z1i"><rect x="235.42" y="138.21" width="34.65" height="86.83" style="fill: rgb(26, 86, 232); transform-origin: 252.745px 181.625px; transform: rotate(107.3deg);" class="animable"></rect></g><g id="elyppn8ptx5g"><rect x="235.42" y="138.21" width="34.65" height="86.83" style="fill: rgb(255, 255, 255); opacity: 0.6; transform-origin: 252.745px 181.625px; transform: rotate(107.3deg);" class="animable"></rect></g><g id="elo7c9f6uc8as"><polygon points="216.45 152.17 209.91 184.38 286.64 206.5 299.35 178 289.04 211.08 206.14 185.26 216.45 152.17" style="opacity: 0.2; transform-origin: 252.745px 181.625px;" class="animable"></polygon></g><g id="eltcl8fk47ox"><rect x="277.87" y="210.37" width="28.68" height="28.68" style="fill: rgb(26, 86, 232); transform-origin: 292.21px 224.71px; transform: rotate(169deg);" class="animable"></rect></g><g id="elttpe7at3e2"><polygon points="309.02 236.04 283.12 241.08 280.87 241.52 275.68 214.79 275.4 213.37 303.56 207.9 309.02 236.04" style="fill: rgb(255, 255, 255); opacity: 0.6; transform-origin: 292.21px 224.71px;" class="animable"></polygon></g><g id="el9f9ajxjgjio"><path d="M309,236l-25.91,5-2.25.44-5.19-26.73-.28-1.42.72,1.69A19.69,19.69,0,0,1,285,235.89l.45,1.06Z" style="opacity: 0.2; transform-origin: 292.185px 227.365px;" class="animable"></path></g><g id="elelnydxl9qml"><rect x="179.52" y="189.46" width="28.68" height="28.68" style="fill: rgb(38, 50, 56); transform-origin: 193.86px 203.8px; transform: rotate(180deg);" class="animable"></rect></g><g id="el1i7awehqm53"><rect x="179.52" y="189.46" width="28.68" height="28.68" style="fill: rgb(255, 255, 255); opacity: 0.2; transform-origin: 193.86px 203.8px; transform: rotate(180deg);" class="animable"></rect></g><g id="elbnh58x92ocb"><polygon points="179.52 218.13 195.24 214.08 201.35 216.83 208.11 207.92 208.2 218.13 179.52 218.13" style="opacity: 0.2; transform-origin: 193.86px 213.025px;" class="animable"></polygon></g><polygon points="151.14 267.81 214.11 255.69 195.23 216.83 154.25 224.71 151.14 267.81" style="fill: rgb(26, 86, 232); transform-origin: 182.625px 242.32px;" id="elbww1xeatmuo" class="animable"></polygon><g id="ellbxloaffct"><polygon points="151.14 267.81 214.11 255.69 195.23 216.83 154.25 224.71 151.14 267.81" style="fill: rgb(255, 255, 255); opacity: 0.6; transform-origin: 182.625px 242.32px;" class="animable"></polygon></g><g id="elm44zx12wyq"><polygon points="151.14 267.81 214.11 255.69 158.44 260.35 154.25 224.71 151.14 267.81" style="opacity: 0.2; transform-origin: 182.625px 246.26px;" class="animable"></polygon></g><g id="elzbwll9uvzq"><circle cx="305.55" cy="173.32" r="7.71" style="fill: rgb(38, 50, 56); transform-origin: 305.55px 173.32px; transform: rotate(-9.22deg);" class="animable"></circle></g><g id="elowhcjyh432s"><polygon points="195.24 238.13 214.11 255.69 202.48 231.75 195.24 238.13" style="opacity: 0.2; transform-origin: 204.675px 243.72px;" class="animable"></polygon></g><g id="eljeeh8gioiu"><rect x="204.89" y="190.89" width="34.65" height="56.29" style="fill: rgb(26, 86, 232); transform-origin: 222.215px 219.035px; transform: rotate(-156.92deg);" class="animable"></rect></g><g id="el93gws0fipeo"><rect x="204.89" y="190.89" width="34.65" height="56.29" style="opacity: 0.2; transform-origin: 222.215px 219.035px; transform: rotate(-156.92deg);" class="animable"></rect></g><g id="ele4ez11k0lw"><polygon points="195.24 238.13 223.95 246.26 249.18 199.93 227.12 251.72 195.24 238.13" style="opacity: 0.2; transform-origin: 222.21px 225.825px;" class="animable"></polygon></g><g id="elofv0t5x8xyr"><circle cx="259.49" cy="225.82" r="19.74" style="fill: rgb(38, 50, 56); transform-origin: 259.49px 225.82px; transform: rotate(-45deg);" class="animable"></circle></g><g id="eld9o89nftnxf"><circle cx="259.49" cy="225.82" r="19.74" style="fill: rgb(255, 255, 255); opacity: 0.6; transform-origin: 259.49px 225.82px; transform: rotate(-45deg);" class="animable"></circle></g><g id="el0u3mnyzocd1"><path d="M279.22,226.17a19.74,19.74,0,0,1-39.48-.35,19.32,19.32,0,0,1,.82-5.61c0,.14,0,.27,0,.4a19.73,19.73,0,0,0,38.67,5.56Z" style="opacity: 0.2; transform-origin: 259.485px 232.973px;" class="animable"></path></g><polygon points="190.57 156.25 209.91 189.75 171.23 189.75 190.57 156.25" style="fill: rgb(38, 50, 56); transform-origin: 190.57px 173px;" id="eljrknr6kjbj" class="animable"></polygon><g id="el7ufooijk0bs"><polygon points="190.57 156.25 209.91 189.75 171.23 189.75 190.57 156.25" style="fill: rgb(255, 255, 255); opacity: 0.6; transform-origin: 190.57px 173px;" class="animable"></polygon></g><g id="el3jl6lrfgjyg"><path d="M190.57,156.25s-3.15,16.52,9,19.11l3.94,11.91-32.31,2.48h38.68Z" style="opacity: 0.2; transform-origin: 190.54px 173px;" class="animable"></path></g><circle cx="203.54" cy="155.29" r="11.65" style="fill: rgb(26, 86, 232); transform-origin: 203.54px 155.29px;" id="elw5mij78x0o9" class="animable"></circle><g id="elsgdhrczcokm"><path d="M215.19,155.29a11.65,11.65,0,0,1-23.3,0c0-.12,0-.25,0-.37a11.64,11.64,0,0,0,21.95-5A11.39,11.39,0,0,1,215.19,155.29Z" style="opacity: 0.2; transform-origin: 203.54px 158.43px;" class="animable"></path></g><g id="el9a66l8qrwu"><circle cx="305.55" cy="173.32" r="7.71" style="fill: rgb(255, 255, 255); opacity: 0.2; transform-origin: 305.55px 173.32px; transform: rotate(-9.22deg);" class="animable"></circle></g><g id="elhto8557mler"><path d="M313.26,173.32a7.71,7.71,0,0,1-14.77,3.11,7.7,7.7,0,0,0,13.05-5.56,7.31,7.31,0,0,0-.67-3.1A7.63,7.63,0,0,1,313.26,173.32Z" style="opacity: 0.2; transform-origin: 305.875px 174.406px;" class="animable"></path></g><polygon points="313.62 175.29 328.56 210.97 290.19 206.08 313.62 175.29" style="fill: rgb(26, 86, 232); transform-origin: 309.375px 193.13px;" id="elcsqhfxgj4ml" class="animable"></polygon><g id="elo3ti3phbe8o"><polygon points="313.62 175.29 321.1 206.08 290.19 206.08 328.56 210.97 313.62 175.29" style="opacity: 0.2; transform-origin: 309.375px 193.13px;" class="animable"></polygon></g><circle cx="317.28" cy="221.61" r="12.05" style="fill: rgb(26, 86, 232); transform-origin: 317.28px 221.61px;" id="elo5dumkxlnbo" class="animable"></circle><g id="el42nyk1a2u2w"><circle cx="317.28" cy="221.61" r="12.05" style="opacity: 0.2; transform-origin: 317.28px 221.61px;" class="animable"></circle></g><g id="el4nmwwgi7ni8"><path d="M329.33,221.61a12.05,12.05,0,1,1-24.1,0c0-.17,0-.33,0-.49a12.05,12.05,0,0,0,23.3-3.8A12,12,0,0,1,329.33,221.61Z" style="opacity: 0.2; transform-origin: 317.28px 225.49px;" class="animable"></path></g><g id="elqp74nyc48i"><rect x="328.84" y="209.1" width="19.86" height="19.86" style="fill: rgb(38, 50, 56); transform-origin: 338.77px 219.03px; transform: rotate(164.21deg);" class="animable"></rect></g><g id="elalgwo6tj9n"><rect x="328.84" y="209.1" width="19.86" height="19.86" style="fill: rgb(255, 255, 255); opacity: 0.6; transform-origin: 338.77px 219.03px; transform: rotate(164.21deg);" class="animable"></rect></g><g id="elfqz7apukey"><polygon points="326.51 212.18 333.94 227.45 351.03 225.89 331.92 231.29 326.51 212.18" style="opacity: 0.2; transform-origin: 338.77px 221.735px;" class="animable"></polygon></g></g><g id="freepik--speech-bubble--inject-182" class="animable" style="transform-origin: 338.33px 284.96px;"><g id="el86bru1dhllh"><circle cx="338.33" cy="284.96" r="17.96" style="fill: rgb(26, 86, 232); transform-origin: 338.33px 284.96px; transform: rotate(-45deg);" class="animable"></circle></g><text transform="translate(334.58 294.85)" style="font-size:26.979110717773438px;fill:#fff;font-family:Montserrat-SemiBold, Montserrat;font-weight:600">!</text><polygon points="326 277.14 317.6 273.66 322.36 281.16 326 277.14" style="fill: rgb(26, 86, 232); transform-origin: 321.8px 277.41px;" id="el5p61h0dzuca" class="animable"></polygon></g><g id="freepik--Character--inject-182" class="animable" style="transform-origin: 251.36px 321.654px;"><g id="ele5ebyzfrkrc"><rect x="142.85" y="246.73" width="217.02" height="16.07" style="fill: rgb(26, 86, 232); transform-origin: 251.36px 254.765px; transform: rotate(169deg);" class="animable"></rect></g><g id="elmpa5iymhttr"><polygon points="146.38 283.37 359.41 241.95 358.51 237.34 147.1 278.25 143.31 267.59 146.38 283.37" style="opacity: 0.2; transform-origin: 251.36px 260.355px;" class="animable"></polygon></g><path d="M314.38,256l8.72-2.64-3.5-7.15s-6.35,1-7.49,6.17Z" style="fill: rgb(206, 122, 99); transform-origin: 317.605px 251.105px;" id="el8r7mjztmhtd" class="animable"></path><polygon points="328.28 245.63 321.21 244.36 319.6 246.17 323.1 253.32 328.28 245.63" style="fill: rgb(206, 122, 99); transform-origin: 323.94px 248.84px;" id="eloldiritt54o" class="animable"></polygon><path d="M279,270.35s12.24,3.3,16.64,5.26c0,0,4.81-10.76,16.72-24.35l4.93,4.49s-11,24.07-15.93,30.82c-2.06,2.85-32.59-3.85-32.59-3.85Z" style="fill: rgb(38, 50, 56); transform-origin: 293.03px 269.268px;" id="elq8v9eoxht0e" class="animable"></path><g id="el2kewofb6ru8"><path d="M317.27,255.75s-11,24.07-15.93,30.82c-1.27,1.75-13.31-.11-22.39-1.79-2.61-.5-5-1-6.77-1.34-2.11-.43-3.43-.72-3.43-.72L279,270.35s12.24,3.3,16.64,5.26c0,0,4.81-10.76,16.72-24.35Z" style="fill: rgb(255, 255, 255); opacity: 0.2; transform-origin: 293.01px 269.267px;" class="animable"></path></g><g id="el4hmyixu3ofy"><path d="M279,284.78c-2.61-.5-5-1-6.77-1.34a16.28,16.28,0,0,1,2-5.13A19.77,19.77,0,0,1,279,284.78Z" style="opacity: 0.2; transform-origin: 275.615px 281.545px;" class="animable"></path></g><path d="M268.86,270.25s5,13.67-16.28,49.07c-2.5,4.15-4.39,18.29-4.39,18.29l-21.05-14.2S243.5,273.68,268.86,270.25Z" style="fill: rgb(38, 50, 56); transform-origin: 248.255px 303.93px;" id="el05ifv81oi7sr" class="animable"></path><path d="M267.22,289.63c-5.42,6.78-26.44,13.15-26.44,13.15L215.66,287.9c7.56-5.68,15-13.57,27.05-32a7.82,7.82,0,0,1,12-1.62c1,.92,2,1.91,3,2.95a105.61,105.61,0,0,1,10,11.49c1,1.34,1.94,2.77,2.84,4.16C273.82,277.84,270.91,285,267.22,289.63Z" style="fill: rgb(26, 86, 232); transform-origin: 243.815px 277.477px;" id="elq39tl9w9pkl" class="animable"></path><path d="M268.89,267.74A35.26,35.26,0,0,0,279,270.35a111.84,111.84,0,0,1-4.32,13c-4.61,11.23-22.43,36.79-22.43,36.79S264.36,288.68,268.89,267.74Z" style="fill: rgb(38, 50, 56); transform-origin: 265.625px 293.94px;" id="el3lautswuc65" class="animable"></path><g id="eld1pjkzz9vmr"><path d="M268.89,267.74A35.26,35.26,0,0,0,279,270.35a111.84,111.84,0,0,1-4.32,13c-4.61,11.23-22.43,36.79-22.43,36.79S264.36,288.68,268.89,267.74Z" style="fill: rgb(255, 255, 255); opacity: 0.2; transform-origin: 265.625px 293.94px;" class="animable"></path></g><path d="M268.75,267s5.51,3,5,7.75l-5.48,3.14.48,5.75s-5.37,10.75-9.2,16.17l8.81-30.72-2.14-2.34S266.88,266.19,268.75,267Z" style="fill: rgb(38, 50, 56); transform-origin: 266.667px 283.186px;" id="el4iqeg4eovi9" class="animable"></path><g id="elaph4jyg8op5"><path d="M268.75,267s5.51,3,5,7.75l-5.48,3.14.48,5.75s-5.37,10.75-9.2,16.17l8.81-30.72-2.14-2.34S266.88,266.19,268.75,267Z" style="fill: rgb(255, 255, 255); opacity: 0.4; transform-origin: 266.667px 283.186px;" class="animable"></path></g><path d="M286.51,237.92s2.17-2.49,8.4,1.54,8.74,15,6.53,21.67-6.81,10.43-4.32,16.31-.38,12-5.95,12.6-5.06,7.78-2.48,8.35c0,0-8.65-1-7.12-8.06a5.67,5.67,0,0,0-.82,3.94s-3.11-1.32-1.77-7.14-2.56-13.21-2.56-13.21,2.27,9-.7,13c0,0,2.27-7.44-1.94-10.25s-8.35-11.39-7.14-24.34S279.26,233.51,286.51,237.92Z" style="fill: rgb(38, 50, 56); transform-origin: 284.328px 267.429px;" id="elb5t0wrf0kjf" class="animable"></path><path d="M208.74,269.37l-6.43,6.45-4.67-6.45s3.86-5.14,9-3.71Z" style="fill: rgb(206, 122, 99); transform-origin: 203.19px 270.614px;" id="elk6kuz6h0cs" class="animable"></path><polygon points="194.39 273.54 192.66 269.37 197.64 269.37 202.31 275.82 194.39 273.54" style="fill: rgb(206, 122, 99); transform-origin: 197.485px 272.595px;" id="el24aadelk9l2" class="animable"></polygon><path d="M216.94,286.92l25.27,15.41-.17,8.61-37.66-11.75A26,26,0,0,1,216.94,286.92Z" style="fill: rgb(26, 86, 232); transform-origin: 223.295px 298.93px;" id="elgliig34qtp" class="animable"></path><g id="elbktm2q0qx2l"><path d="M216.94,286.92l25.27,15.41-.17,8.61-37.66-11.75A26,26,0,0,1,216.94,286.92Z" style="fill: rgb(255, 255, 255); opacity: 0.6; transform-origin: 223.295px 298.93px;" class="animable"></path></g><path d="M244.36,308.26s31.06,17,37.54,29.48,27.8,64.07,27.8,64.07l-8.3,4.55S275,376.44,265.61,349.14c0,0-12.14-2.25-35.16-12.64,0,0-4.62,41.12-9.78,47.59s-59.51,19-59.51,19l-1.66-9.59s23.46-16.68,45.17-23c0,0-5.26-40.59-1.92-56.79,3.68-17.88,12.45-21.71,12.45-21.71Z" style="fill: rgb(26, 86, 232); transform-origin: 234.6px 349.18px;" id="eldhpvhh4cu7" class="animable"></path><g id="elfqkuras20ir"><path d="M159.51,393.45l1.65,9.59s54.34-12.47,59.51-19,9.79-47.6,9.79-47.6q4.6,2.08,8.61,3.74c17.42,7.23,26.53,8.91,26.53,8.91,9.42,27.29,35.8,57.22,35.8,57.22l8.3-4.55s-21.32-51.59-27.8-64.06-37.55-29.49-37.55-29.49L215.2,291.92s-8.77,3.83-12.45,21.71c-3.34,16.2,1.93,56.79,1.93,56.79C183,376.77,159.51,393.45,159.51,393.45Z" style="fill: rgb(255, 255, 255); opacity: 0.6; transform-origin: 234.605px 349.115px;" class="animable"></path></g><g id="elrdorajtpv8"><path d="M230.46,336.49q4.6,2.08,8.61,3.74a40.26,40.26,0,0,0-8.61-14.59C230.6,332.85,230.46,336.49,230.46,336.49Z" style="opacity: 0.2; transform-origin: 234.765px 332.935px;" class="animable"></path></g><path d="M256.81,256.32s-9.51,31.19-41.4,51.93a71.81,71.81,0,0,0-11,15.16s-6.83-1.15-9.06-5.26c0,0,3.42-27.7,20-32.53,0,0,24.12-27.3,28.5-32.46S255.61,252.6,256.81,256.32Z" style="fill: rgb(38, 50, 56); transform-origin: 226.08px 287.133px;" id="elxpqkj2a8rdj" class="animable"></path><g id="elbvbnrzvmq7s"><path d="M256.81,256.32s-9.51,31.19-41.4,51.93a71.81,71.81,0,0,0-11,15.16s-6.83-1.15-9.06-5.26c0,0,3.42-27.7,20-32.53,0,0,11.44-12.95,20-22.7l5.58-6.39c1.29-1.47,2.3-2.64,2.92-3.37C248.19,248,255.61,252.6,256.81,256.32Z" style="fill: rgb(255, 255, 255); opacity: 0.2; transform-origin: 226.08px 287.133px;" class="animable"></path></g><path d="M255.88,255a2.82,2.82,0,0,1,3,1.34s-3.31,14.79-21.4,32.64c0,0,7.51-8.83,10.7-24.11l4.83-1.92-2.08-5.27S253.71,255.25,255.88,255Z" style="fill: rgb(38, 50, 56); transform-origin: 248.18px 271.961px;" id="elfirldbgdgbv" class="animable"></path><g id="elxb9e80kt06o"><path d="M255.88,255a2.82,2.82,0,0,1,3,1.34s-3.31,14.79-21.4,32.64c0,0,7.51-8.83,10.7-24.11l4.83-1.92-2.08-5.27S253.71,255.25,255.88,255Z" style="fill: rgb(255, 255, 255); opacity: 0.4; transform-origin: 248.18px 271.961px;" class="animable"></path></g><path d="M149,414.34c-1.18-6.44-1.24-7.31-1.78-10.95-.46-3.12-1-3.79-1.38-6.29-.33-2.09,1.67-2.37,4.08-2.15,1.21.11,3.73.16,5.67.26l2.41,9.31c-2.29,1.79-5.35,5.45-5.18,9.17C153,417.24,149.45,416.91,149,414.34Z" style="fill: rgb(38, 50, 56); transform-origin: 151.902px 405.6px;" id="elpcbtbx5lhs" class="animable"></path><path d="M164.73,404c-1.54.48-4.21,1.34-6.19,2.19a1.41,1.41,0,0,1-1.75-.27c-2.15-3.75-2.38-10-2.4-12a1.24,1.24,0,0,1,.89-1l5.72-2.29c.78-.31,1.62-.11,1.76.42l3,11.75C165.87,403.25,165.42,403.77,164.73,404Z" style="fill: rgb(26, 86, 232); transform-origin: 160.083px 398.432px;" id="elg8tvtltlcv7" class="animable"></path><path d="M321.51,415.89c-6.53.46-7.4.42-11.07.56-3.15.11-3.88.56-6.41.68-2.11.11-2.17-1.92-1.69-4.29.24-1.19.57-3.69.89-5.61l9.51-1.37c1.53,2.47,4.83,5.92,8.55,6.16C324.83,412.24,324.12,415.71,321.51,415.89Z" style="fill: rgb(38, 50, 56); transform-origin: 312.902px 411.497px;" id="el6e0ixjyhjoo" class="animable"></path><path d="M310.85,399.87c.58,1.5,1.64,4.1,2.63,6a1.42,1.42,0,0,1-.14,1.77c-3.58,2.42-9.8,3.11-11.8,3.27a1.23,1.23,0,0,1-1.05-.82l-2.7-5.53c-.37-.76-.23-1.61.29-1.79l11.5-3.84C310,398.79,310.58,399.2,310.85,399.87Z" style="fill: rgb(26, 86, 232); transform-origin: 305.654px 404.906px;" id="eljn64gdm5p8" class="animable"></path><path d="M272.66,251.54l0,.74-.37,10.6h0l-.07,0h0a10,10,0,0,0-4.56,2.79c-1,1.28-1.22,3,0,5.4,0,0,.26,2.22-5.14,2-1.19-10.36-4.83-13.52-4.83-13.52C262.59,260.45,269.3,254.9,272.66,251.54Z" style="fill: rgb(206, 122, 99); transform-origin: 265.175px 262.313px;" id="elybvw76yhka" class="animable"></path><g id="el63d43rt29te"><path d="M272.64,252.28l-.37,10.6-.07,0h0a10,10,0,0,0-4.56,2.79C267.26,262,268.06,255.25,272.64,252.28Z" style="opacity: 0.2; transform-origin: 270.098px 258.975px;" class="animable"></path></g><path d="M262.07,270.79c-2.47-2.15-6.84.3-6.84.3s.51-10,1.82-14.39a31.92,31.92,0,0,0,3.23,1S262.24,268.13,262.07,270.79Z" style="fill: rgb(26, 86, 232); transform-origin: 258.655px 263.895px;" id="el2zog61s5ixa" class="animable"></path><path d="M264.91,273s1.24.63.78,4.67a10.21,10.21,0,0,0,2.37-9.35,2.92,2.92,0,0,0-1.12-1.36,3,3,0,0,0-.09,2C267.2,270.57,264.91,273,264.91,273Z" style="fill: rgb(26, 86, 232); transform-origin: 266.636px 272.315px;" id="ellglm0nv55p" class="animable"></path><g id="el5rhdk0o00l7"><path d="M262.07,270.79c-2.47-2.15-6.84.3-6.84.3s.51-10,1.82-14.39a31.92,31.92,0,0,0,3.23,1S262.24,268.13,262.07,270.79Z" style="opacity: 0.2; transform-origin: 258.655px 263.895px;" class="animable"></path></g><g id="el67pkp09mn2u"><path d="M264.91,273s1.24.63.78,4.67a10.21,10.21,0,0,0,2.37-9.35,2.92,2.92,0,0,0-1.12-1.36,3,3,0,0,0-.09,2C267.2,270.57,264.91,273,264.91,273Z" style="opacity: 0.2; transform-origin: 266.636px 272.315px;" class="animable"></path></g><path d="M279.6,244c-6.47,4.78-9.3,6.66-10.75,12.37-2.19,8.59,4.59,15.67,12.23,13,6.88-2.44,16.31-9.84,15.11-18.31A10.3,10.3,0,0,0,279.6,244Z" style="fill: rgb(206, 122, 99); transform-origin: 282.363px 255.878px;" id="els03rq7zkq0p" class="animable"></path><path d="M287.21,260.73c-.56.38-.84,1-.62,1.36s.84.37,1.4,0,.84-1,.62-1.36S287.77,260.36,287.21,260.73Z" style="fill: rgb(38, 50, 56); transform-origin: 287.6px 261.41px;" id="el6ctwgaznoy6" class="animable"></path><path d="M288.49,260.58l1.18,1.11S288.21,261.69,288.49,260.58Z" style="fill: rgb(38, 50, 56); transform-origin: 289.062px 261.135px;" id="el6xce61zvn2f" class="animable"></path><path d="M284.7,259.35a19.85,19.85,0,0,0-2.4,4.44c-1.13-.28-1.55-1.77-1.55-1.77Z" style="fill: rgb(186, 77, 60); transform-origin: 282.725px 261.57px;" id="els9m6aty3i4" class="animable"></path><path d="M287,254.88a.38.38,0,0,0-.21-.22,2.91,2.91,0,0,1-1.79-2.07.36.36,0,0,0-.43-.31.44.44,0,0,0-.33.48,3.64,3.64,0,0,0,2.24,2.65.42.42,0,0,0,.52-.53Z" style="fill: rgb(38, 50, 56); transform-origin: 285.628px 253.85px;" id="elmuwj2v99x9" class="animable"></path><path d="M293.31,259.35a.37.37,0,0,0,.33-.62,4.1,4.1,0,0,0-3.24-1.7.36.36,0,0,0-.34.41.42.42,0,0,0,.43.37,3.3,3.3,0,0,1,2.55,1.38A.41.41,0,0,0,293.31,259.35Z" style="fill: rgb(38, 50, 56); transform-origin: 291.899px 258.193px;" id="elahlc0xni4lv" class="animable"></path><path d="M283.48,255.25l1.17,1.11S283.2,256.36,283.48,255.25Z" style="fill: rgb(38, 50, 56); transform-origin: 284.047px 255.805px;" id="elq6uaekvvtti" class="animable"></path><path d="M284.1,255.84a2.13,2.13,0,0,0-1.58-2.55,2.28,2.28,0,0,1,.92,2.28Z" style="fill: rgb(38, 50, 56); transform-origin: 283.337px 254.565px;" id="eliegobh7j5x" class="animable"></path><path d="M290.21,246.85s-8.93,5.28-14.21,1.25,4.86-10.37,11.6-8.84,14.29,10.28,7,19.3C294.56,258.56,297.6,250.78,290.21,246.85Z" style="fill: rgb(38, 50, 56); transform-origin: 286.055px 248.793px;" id="el55qwfmje38h" class="animable"></path><path d="M272.76,245.27a6.42,6.42,0,0,0-.57,4.9c.64,2.09,2.9,1.77,4.34.05,1.3-1.54,2.52-4.5,1.1-6S273.8,243.37,272.76,245.27Z" style="fill: rgb(206, 122, 99); transform-origin: 275.104px 247.509px;" id="elsx1qv499gy" class="animable"></path><path d="M275,262.23a.63.63,0,0,0,.11.12,6,6,0,0,1,3.17-.33s0-.15,0-.43c-.07-1.34-.44-5.31-2.64-4.9C273,257.15,273.41,260.47,275,262.23Z" style="fill: rgb(255, 255, 255); transform-origin: 276.006px 259.505px;" id="elv62lf1odzlq" class="animable"></path><g id="elqrcvh7fucc"><path d="M276.63,261.69a13.08,13.08,0,0,0-.22-1.39l-.29-.12.24-.12a12.21,12.21,0,0,0-.38-1.36l-.32-.12.23-.14a10.34,10.34,0,0,0-.48-1.13,3.65,3.65,0,0,1,.69,1.07l.36,0-.24.25a9.61,9.61,0,0,1,.39,1.35l.37.05-.32.22a9.38,9.38,0,0,1,.16,1.13l1.44.18c0,.28,0,.43,0,.43a6,6,0,0,0-3.17.33.63.63,0,0,1-.11-.12Z" style="opacity: 0.2; transform-origin: 276.62px 259.815px;" class="animable"></path></g><path d="M204.38,287.53a.37.37,0,0,1-.14,0,.25.25,0,0,1-.07-.35c2.68-4.27,8.17-5.21,8.41-5.24a.25.25,0,0,1,.28.2.24.24,0,0,1-.2.29c-.06,0-5.51.94-8.07,5A.25.25,0,0,1,204.38,287.53Z" style="fill: rgb(38, 50, 56); transform-origin: 208.496px 284.737px;" id="elxf80kkpcgj" class="animable"></path><path d="M203.87,284.18a.23.23,0,0,1-.16-.06.24.24,0,0,1,0-.35c.1-.12,2.52-2.88,5-3.4a.24.24,0,0,1,.29.19.25.25,0,0,1-.19.3c-2.32.48-4.71,3.21-4.73,3.23A.25.25,0,0,1,203.87,284.18Z" style="fill: rgb(38, 50, 56); transform-origin: 206.32px 282.272px;" id="el9kqzyjkx07f" class="animable"></path><path d="M219.08,389a.26.26,0,0,1-.24-.18.26.26,0,0,1,.18-.31c2.72-.79,4.43-2.61,5.36-5.71a.25.25,0,1,1,.48.14c-1,3.28-2.8,5.21-5.71,6Z" style="fill: rgb(38, 50, 56); transform-origin: 221.851px 385.81px;" id="elq3zg83wpx4c" class="animable"></path><path d="M224.28,389a.25.25,0,0,1-.22-.12.25.25,0,0,1,.09-.34c2.33-1.37,2.94-5.15,2.94-5.19a.27.27,0,0,1,.29-.21.26.26,0,0,1,.21.29c0,.16-.65,4.05-3.19,5.54Z" style="fill: rgb(38, 50, 56); transform-origin: 225.81px 386.069px;" id="el4pjqwdz1o6d" class="animable"></path><path d="M285,337.86a.25.25,0,0,1-.24-.17,22.13,22.13,0,0,0-7.05-10.58.24.24,0,0,1-.07-.34.25.25,0,0,1,.35-.07,22.54,22.54,0,0,1,7.24,10.83.25.25,0,0,1-.15.32Z" style="fill: rgb(38, 50, 56); transform-origin: 281.421px 332.258px;" id="elzme558pxl1" class="animable"></path><path d="M285.72,333.19a.25.25,0,0,1-.23-.17,12.33,12.33,0,0,0-3.83-5.57.25.25,0,0,1,.3-.4,12.57,12.57,0,0,1,4,5.81.25.25,0,0,1-.16.31Z" style="fill: rgb(38, 50, 56); transform-origin: 283.766px 330.096px;" id="eljymcaehw1jc" class="animable"></path><path d="M299.34,412.52h0c-1.85-.09-3-3.35-3-3.49a.23.23,0,0,1,.15-.31.25.25,0,0,1,.32.15c.29.86,1.33,3.09,2.58,3.15a.25.25,0,0,1,0,.5Z" style="fill: rgb(38, 50, 56); transform-origin: 297.981px 410.613px;" id="el35ag3ak4929" class="animable"></path><path d="M297.58,413.46h-.05a3.7,3.7,0,0,1-2.16-1.84.25.25,0,0,1,.45-.23,3.19,3.19,0,0,0,1.81,1.58.26.26,0,0,1,.2.3A.26.26,0,0,1,297.58,413.46Z" style="fill: rgb(38, 50, 56); transform-origin: 296.588px 412.356px;" id="eli8z0b5yesf7" class="animable"></path><path d="M152.62,392.52a.23.23,0,0,1-.14,0,.24.24,0,0,1-.07-.34,5.58,5.58,0,0,1,3.05-2.33.26.26,0,0,1,.3.2.24.24,0,0,1-.2.29,5.13,5.13,0,0,0-2.73,2.11A.26.26,0,0,1,152.62,392.52Z" style="fill: rgb(38, 50, 56); transform-origin: 154.067px 391.188px;" id="elewhz0mlc3wk" class="animable"></path><path d="M152.62,390.31a.25.25,0,0,1-.16-.06.25.25,0,0,1,0-.35,8.16,8.16,0,0,1,1.88-1.77.23.23,0,0,1,.32.13.25.25,0,0,1-.13.33,7.85,7.85,0,0,0-1.68,1.63A.25.25,0,0,1,152.62,390.31Z" style="fill: rgb(38, 50, 56); transform-origin: 153.535px 389.209px;" id="eln7oow80z32f" class="animable"></path><path d="M301.38,289.21a.25.25,0,0,1-.25-.22.26.26,0,0,1,.23-.28c3.42-.3,4-4.18,4-4.22a.25.25,0,0,1,.28-.21.25.25,0,0,1,.22.28c0,.05-.67,4.31-4.48,4.65Z" style="fill: rgb(38, 50, 56); transform-origin: 303.496px 286.744px;" id="elzgdxkxyqand" class="animable"></path><path d="M304.79,290.9a.24.24,0,0,1-.24-.17.25.25,0,0,1,.16-.31c1-.32,2-2.54,2.22-3.37a.25.25,0,1,1,.48.16c-.05.13-1.08,3.22-2.55,3.68Z" style="fill: rgb(38, 50, 56); transform-origin: 305.981px 288.888px;" id="el5whh8jnyur6" class="animable"></path><g id="els2gnjr21dx"><path d="M244.53,258.19s-4.14,5.79-9.21,4.73l5.58-6.39A9.83,9.83,0,0,1,244.53,258.19Z" style="opacity: 0.2; transform-origin: 239.925px 259.79px;" class="animable"></path></g><path d="M253.47,252.43s-10.1-13.5-33.14-16.76c0,0-4.67-2.53-16.46,29.37l5.18,4.94,14.55-22.41,16.55,12.15S245.53,260.88,253.47,252.43Z" style="fill: rgb(38, 50, 56); transform-origin: 228.67px 252.801px;" id="elxeh68dyq4we" class="animable"></path><g id="elofae6b3ohq"><path d="M253.47,252.43s-10.1-13.5-33.14-16.76c0,0-4.67-2.53-16.46,29.37l5.18,4.94,14.55-22.41,16.55,12.15S245.53,260.88,253.47,252.43Z" style="fill: rgb(255, 255, 255); opacity: 0.2; transform-origin: 228.67px 252.801px;" class="animable"></path></g><path d="M214.11,237.8a.22.22,0,0,1-.13,0,.24.24,0,0,1-.08-.34c.13-.22,3.24-5.23,6.51-4.53a.25.25,0,1,1-.1.49c-2.93-.61-6,4.25-6,4.3A.22.22,0,0,1,214.11,237.8Z" style="fill: rgb(38, 50, 56); transform-origin: 217.235px 235.336px;" id="elqtup7n0b1p" class="animable"></path><path d="M215.34,233.33a.28.28,0,0,1-.17-.07.25.25,0,0,1,0-.35c.08-.09,2-2.17,3.34-2.17a.25.25,0,0,1,.25.25.25.25,0,0,1-.25.25c-1,0-2.46,1.45-3,2A.25.25,0,0,1,215.34,233.33Z" style="fill: rgb(38, 50, 56); transform-origin: 216.929px 232.035px;" id="el87857bzhixl" class="animable"></path></g><defs>     <filter id="active" height="200%">         <feMorphology in="SourceAlpha" result="DILATED" operator="dilate" radius="2"></feMorphology>                <feFlood flood-color="#32DFEC" flood-opacity="1" result="PINK"></feFlood>        <feComposite in="PINK" in2="DILATED" operator="in" result="OUTLINE"></feComposite>        <feMerge>            <feMergeNode in="OUTLINE"></feMergeNode>            <feMergeNode in="SourceGraphic"></feMergeNode>        </feMerge>    </filter>    <filter id="hover" height="200%">        <feMorphology in="SourceAlpha" result="DILATED" operator="dilate" radius="2"></feMorphology>                <feFlood flood-color="#ff0000" flood-opacity="0.5" result="PINK"></feFlood>        <feComposite in="PINK" in2="DILATED" operator="in" result="OUTLINE"></feComposite>        <feMerge>            <feMergeNode in="OUTLINE"></feMergeNode>            <feMergeNode in="SourceGraphic"></feMergeNode>        </feMerge>            <feColorMatrix type="matrix" values="0   0   0   0   0                0   1   0   0   0                0   0   0   0   0                0   0   0   1   0 "></feColorMatrix>    </filter></defs></svg>